# xmcd
#
# Track frame offsets: 
#        183
#        14615
#        24623
#        38723
#        51918
#        63925
#        75143
#        108705
#        126448
#        138065
#        152640
#        169345
#        184920
#        195780
#        205955
#        217425
#        229833
#        240078
#        252120
#        264735
#
# Disc length: 3752 seconds
#
# Revision: 3
# Processed by: cddbd v1.5.1PL0 Copyright (c) Steve Scherf et al.
# Submitted via: ExactAudioCopy v0.90b4
#
DISCID=150ea614
DTITLE=Buddy Guy - Stone Crazy
DYEAR=1990
DGENRE=Blues
TTITLE0=Broken Hearted Blues
TTITLE1=First Time I Met The Blues
TTITLE2=I Got A Strange Feeling
TTITLE3=Let Me Love You Baby
TTITLE4=Ten Years Ago
TTITLE5=Watch Yourself
TTITLE6=Stone Crazy
TTITLE7=When My Left Eye Jumps
TTITLE8=No Lie
TTITLE9=My Time After A While
TTITLE10=Every Girl I See
TTITLE11=Leave My Girl Alone
TTITLE12=Crazy Love
TTITLE13=Too Many Ways
TTITLE14=Keep It To Yourself
TTITLE15=Mother-In-Law
TTITLE16=She Suits Me 'To A Tee
TTITLE17=Goin' Home
TTITLE18=I Suffer With The Blues
TTITLE19=Buddy's Groove
EXTD=
EXTT0=
EXTT1=
EXTT2=
EXTT3=
EXTT4=
EXTT5=
EXTT6=
EXTT7=
EXTT8=
EXTT9=
EXTT10=
EXTT11=
EXTT12=
EXTT13=
EXTT14=
EXTT15=
EXTT16=
EXTT17=
EXTT18=
EXTT19=
PLAYORDER=
